<svg width="92" height="117" viewBox="0 0 92 117" fill="none" xmlns="http://www.w3.org/2000/svg">
<path id="Vector" d="M42.4363 0.420013L39.423 4.63806C45.2099 8.95096 49.097 13.6929 52.4909 18.6533L58.45 18.224C54.4758 12.1145 49.8752 5.96439 42.4363 0.420013ZM25.5396 22.4632L25.7228 31.1627L45.3974 29.7598L48.0605 23.2035L25.5396 22.4632ZM60.6289 23.3025L53.3425 23.827L49.9673 32.1369C51.394 32.5164 52.8021 32.9653 54.1869 33.482C54.2576 31.5007 54.9226 29.5941 56.0133 27.9649C57.2193 26.1634 59.0127 24.6587 61.2563 24.0416L60.6289 23.3025ZM63.5613 28.9588C63.2914 28.9536 63.0383 28.9823 62.7966 29.0319C61.8306 29.2298 60.9058 29.908 60.2338 30.9118C59.5617 31.9155 59.2232 33.1937 59.3055 34.1937C59.3859 35.1672 59.6964 35.8397 60.5965 36.4193C61.0833 36.6876 61.5622 36.9653 62.0357 37.2499L65.2226 29.4035C64.5969 29.0923 64.0518 28.9684 63.5613 28.9588ZM69.9919 31.2903L68.0326 36.1138L73.978 38.689C76.256 39.676 77.7625 41.6623 78.826 44.9732C79.8894 48.2841 80.3308 52.7803 80.3044 57.8571C80.2515 68.0105 78.4025 80.4355 77.2998 91.2553C76.7485 96.6654 76.3801 101.675 76.5582 105.937C76.736 110.199 77.3038 113.835 79.6002 116.43C80.7486 117.728 82.4278 118.611 84.2286 118.783C86.0294 118.955 87.8984 118.533 89.9216 117.679C93.0241 116.369 96.589 114 100.927 110.372L96.2459 107.493C92.7883 110.245 90.0218 111.986 87.9682 112.853C86.4486 113.495 85.3594 113.646 84.7047 113.583C84.0502 113.521 83.7761 113.361 83.3938 112.929C82.6292 112.065 81.8237 109.485 81.6663 105.715C81.509 101.945 81.8433 97.1078 82.3849 91.7958C83.4671 81.1718 85.3611 68.6525 85.417 57.8849C85.4449 52.501 85.0319 47.5429 83.6835 43.3451C82.3349 39.1474 79.8718 35.5705 75.9739 33.8821L69.9919 31.2903ZM40.9625 36.0924C37.1251 36.0886 34.1814 37.0845 32.457 38.906L26.6615 53.1746L63.9163 68.9594L69.7118 54.6909C69.7561 52.1578 68.3677 49.3264 65.6549 46.5545C62.8194 43.6573 58.6736 40.9846 54.2136 39.0946C49.7534 37.2049 44.9733 36.0961 40.9625 36.0924ZM124.832 47.3938L103.159 92.7023L110.68 97.3294L139.813 56.6099L124.832 47.3938ZM24.7025 57.998L23.1787 61.7499L60.4329 77.5348L61.9567 73.7832L24.7025 57.998ZM21.2197 66.5725L17.9544 74.6112L30.5474 79.9469L9.4327 131.931L8.99955 131.747V135.76H36.7829L58.4742 82.3574L21.2197 66.5725ZM15.9954 79.4343L0.251221 119.37H8.99955L23.866 82.7693L15.9954 79.4343ZM100.907 97.4127L98.3742 102.706L104.248 106.32L107.651 101.562L100.907 97.4127Z" fill="#3F3E3E" fill-opacity="0.6"/>
</svg>
