<svg width="139" height="139" viewBox="0 0 139 139" fill="none" xmlns="http://www.w3.org/2000/svg">
<path fill-rule="evenodd" clip-rule="evenodd" d="M21.7188 26.0625L26.0625 21.7188H60.8125L65.1562 26.0625V60.8125L60.8125 65.1562H26.0625L21.7188 60.8125V26.0625ZM30.4062 30.4062V56.4687H56.4687V30.4062H30.4062ZM78.1875 21.7188L73.8437 26.0625V60.8125L78.1875 65.1562H112.937L117.281 60.8125V26.0625L112.937 21.7188H78.1875ZM82.5312 56.4687V30.4062H108.594V56.4687H82.5312ZM99.9062 117.281H91.2187V99.9062H73.8437V91.2187H91.2187V73.8437H99.9062V91.2187H117.281V99.9062H99.9062V117.281ZM26.0625 73.8437L21.7188 78.1875V112.937L26.0625 117.281H60.8125L65.1562 112.937V78.1875L60.8125 73.8437H26.0625ZM30.4062 108.594V82.5312H56.4687V108.594H30.4062Z" fill="#3F3E3E" fill-opacity="0.6"/>
</svg>
