<svg width="139" height="139" viewBox="0 0 139 139" fill="none" xmlns="http://www.w3.org/2000/svg">
<path d="M23.1667 43.4375L67.2286 18.6528C68.0574 18.1866 68.4715 17.9536 68.9105 17.8623C69.2997 17.7815 69.7005 17.7815 70.0897 17.8623C70.5287 17.9536 70.9428 18.1866 71.7716 18.6528L115.833 43.4375M23.1667 43.4375V92.8526C23.1667 93.8395 23.1667 94.3323 23.3115 94.7731C23.4396 95.1629 23.649 95.5208 23.9258 95.8231C24.2388 96.1654 24.6687 96.4075 25.5285 96.8911L69.5001 121.625M23.1667 43.4375L69.5001 66.6042M115.833 43.4375V92.8526C115.833 93.8395 115.833 94.3323 115.689 94.7731C115.561 95.1629 115.351 95.5208 115.074 95.8231C114.761 96.1654 114.332 96.4075 113.472 96.8911L69.5001 121.625M115.833 43.4375L69.5001 66.6042M69.5001 121.625V66.6042" stroke="#3F3E3E" stroke-opacity="0.6" stroke-width="7" stroke-linecap="round" stroke-linejoin="round"/>
</svg>
