<svg width="139" height="139" viewBox="0 0 139 139" fill="none" xmlns="http://www.w3.org/2000/svg">
<path fill-rule="evenodd" clip-rule="evenodd" d="M74.0546 56.4685L63.7078 35.7752L53.3612 56.4685H74.0546ZM42.4477 58.87L59.8227 24.1197H67.5928L84.9678 58.87L81.0828 65.1563H46.3329L42.4477 58.87ZM73.8437 78.1875L78.1875 73.8438H112.937L117.281 78.1875V112.938L112.937 117.281H78.1875L73.8437 112.938V78.1875ZM108.594 82.5313H82.5312V108.594H108.594V82.5313ZM43.4375 73.8438C31.4426 73.8438 21.7188 83.5674 21.7188 95.5625C21.7188 107.557 31.4426 117.281 43.4375 117.281C55.4324 117.281 65.1562 107.557 65.1562 95.5625C65.1562 83.5674 55.4324 73.8438 43.4375 73.8438ZM30.4062 95.5625C30.4062 88.3652 36.2405 82.5313 43.4375 82.5313C50.6345 82.5313 56.4687 88.3652 56.4687 95.5625C56.4687 102.759 50.6345 108.594 43.4375 108.594C36.2405 108.594 30.4062 102.759 30.4062 95.5625Z" fill="#3F3E3E" fill-opacity="0.6"/>
</svg>
