<svg width="139" height="139" viewBox="0 0 139 139" fill="none" xmlns="http://www.w3.org/2000/svg">
<path d="M107.969 101.766C110.304 98.8067 111.702 95.0738 111.702 91.0016C111.702 81.4046 103.924 73.6266 94.3272 73.6266C84.7303 73.6266 76.9522 81.4046 76.9522 91.0016C76.9522 95.0603 78.3504 98.8067 80.6852 101.766C71.1018 106.721 64.5454 116.725 64.5454 128.236H74.4682C74.4682 117.281 83.3729 108.377 94.3272 108.377C105.282 108.377 114.186 117.281 114.186 128.236H124.109C124.109 116.738 117.539 106.734 107.969 101.766ZM94.3272 83.5629C98.4267 83.5629 101.779 86.9021 101.779 91.0151C101.779 95.1145 98.4402 98.4674 94.3272 98.4674C90.2278 98.4674 86.875 95.1281 86.875 91.0151C86.875 86.9021 90.2143 83.5629 94.3272 83.5629Z" fill="#3F3E3E" fill-opacity="0.6"/>
<path d="M14.8909 9.92275V129.077H59.5772V119.141H24.8272V19.8591H114.186V69.5H124.109V9.92275H14.8909Z" fill="#3F3E3E" fill-opacity="0.6"/>
<path d="M34.75 34.75H104.25V44.6728H34.75V34.75ZM34.75 54.6091H84.3909V64.5318H34.75V54.6091ZM34.75 74.4682H64.5318V84.3909H34.75V74.4682Z" fill="#3F3E3E" fill-opacity="0.6"/>
</svg>
