<svg width="139" height="139" viewBox="0 0 139 139" fill="none" xmlns="http://www.w3.org/2000/svg">
<g clip-path="url(#clip0_131_9)">
<path d="M24.858 63.8039L18.8279 110.078H47.2144L41.1872 63.8039H24.858Z" fill="#3F3E3E" fill-opacity="0.6"/>
<path d="M116.626 24.5371L83.9449 24.5978V12.6156L108.794 7.21589C109.742 7.00316 110.568 6.42641 111.095 5.60997C111.621 4.79353 111.806 3.80281 111.608 2.85162C111.509 2.38694 111.319 1.94658 111.048 1.55576C110.778 1.16494 110.433 0.831446 110.033 0.574467C109.634 0.317488 109.187 0.142099 108.719 0.0584012C108.251 -0.0252962 107.772 -0.0156971 107.308 0.0867332L75.1758 6.87467C73.8715 7.61397 72.7375 8.61989 71.848 9.82685C70.9585 11.0338 70.3333 12.4147 70.0133 13.8795L69.8138 13.9402C69.8138 13.8968 69.7646 13.8736 69.7502 13.8331C69.6593 11.9957 69.1377 10.2053 68.2274 8.60663C67.3172 7.00792 66.0437 5.64566 64.5099 4.62983C62.9761 3.61399 61.2249 2.97306 59.3977 2.75877C57.5705 2.54447 55.7186 2.76282 53.9913 3.39619C52.2641 4.02957 50.71 5.06024 49.4545 6.40494C48.199 7.74965 47.2773 9.37069 46.7638 11.1373C46.2503 12.9038 46.1594 14.7664 46.4984 16.5746C46.8375 18.3828 47.5969 20.086 48.7155 21.5466C48.7155 21.5871 48.6866 21.6507 48.7155 21.6767C48.7444 21.7027 48.2903 21.9659 47.5384 22.5444C42.6616 26.378 38.256 30.7758 34.4138 35.6459C30.6939 40.5034 28.7266 46.4765 28.8319 52.5939L28.8695 60.9117H37.6703V52.9322C37.8248 48.205 39.7536 43.7092 43.0729 40.3398C48.6286 34.9767 55.9815 31.8734 63.6998 31.6344V35.6226C60.8076 36.3486 49.239 40.1026 49.239 58.2943V127.556C49.3846 130.655 50.724 133.577 52.9766 135.711C55.2291 137.844 58.22 139.023 61.3224 139H87.0626C88.5606 139 90.0438 138.703 91.4264 138.126C92.8091 137.55 94.0639 136.705 95.1185 135.641C96.173 134.577 97.0065 133.315 97.5706 131.927C98.1348 130.539 98.4186 129.054 98.4056 127.556V58.6964C98.4056 37.277 83.9449 35.1773 83.9449 35.1773V31.51L116.45 33.1268C117.482 32.9766 118.425 32.4599 119.107 31.6712C119.789 30.8825 120.164 29.8745 120.163 28.8319C120.202 27.8071 119.863 26.8038 119.211 26.0122C118.559 25.2206 117.639 24.6957 116.626 24.5371ZM58.0658 21.5784C56.6617 21.5778 55.2892 21.1609 54.1219 20.3804C52.9547 19.5998 52.0451 18.4907 51.5081 17.1933C50.9712 15.8958 50.831 14.4682 51.1053 13.0911C51.3795 11.714 52.056 10.4492 53.0491 9.4565C54.0422 8.4638 55.3074 7.78786 56.6846 7.51413C58.0618 7.2404 59.4893 7.38114 60.7865 7.91863C62.0838 8.45612 63.1925 9.36617 63.9726 10.5337C64.7526 11.7013 65.169 13.074 65.169 14.4781C65.169 15.4115 64.9849 16.3357 64.6274 17.1979C64.2698 18.0601 63.7458 18.8434 63.0853 19.5029C62.4247 20.1624 61.6406 20.6851 60.7778 21.0412C59.9151 21.3973 58.9906 21.5799 58.0572 21.5784H58.0658ZM89.7292 69.5882V107.186H66.5919V69.5882H89.7292Z" fill="#3F3E3E" fill-opacity="0.6"/>
</g>
<defs>
<clipPath id="clip0_131_9">
<rect width="139" height="139" fill="white"/>
</clipPath>
</defs>
</svg>
