<svg width="20" height="20" viewBox="0 0 20 20" fill="none" xmlns="http://www.w3.org/2000/svg">
<g id="in-alt_svgrepo.com" clip-path="url(#clip0_4_102)">
<g id="Group 12">
<path id="Path 6" fill-rule="evenodd" clip-rule="evenodd" d="M18.75 4.94709e-08H10C9.66848 4.94709e-08 9.35054 0.131696 9.11612 0.366117C8.8817 0.600537 8.75 0.918479 8.75 1.25C8.75 1.58152 8.8817 1.89946 9.11612 2.13388C9.35054 2.3683 9.66848 2.5 10 2.5H17.5V17.5H10C9.66848 17.5 9.35054 17.6317 9.11612 17.8661C8.8817 18.1005 8.75 18.4185 8.75 18.75C8.75 19.0815 8.8817 19.3995 9.11612 19.6339C9.35054 19.8683 9.66848 20 10 20H18.75C18.9142 20 19.0767 19.9677 19.2284 19.9049C19.3801 19.8421 19.5179 19.7501 19.634 19.634C19.7501 19.5179 19.8421 19.3801 19.9049 19.2284C19.9677 19.0767 20 18.9142 20 18.75V1.25C20 1.08583 19.9677 0.923269 19.9049 0.771591C19.8421 0.619913 19.7501 0.482096 19.634 0.366014C19.5179 0.249931 19.3801 0.157859 19.2284 0.0950566C19.0767 0.0322545 18.9142 -4.61415e-05 18.75 4.94709e-08Z" fill="white"/>
<path id="Path 7" fill-rule="evenodd" clip-rule="evenodd" d="M8.75 15L13.75 10L8.75 5V8.75H1.11684C0.499531 8.75 0 9.30969 0 10C0 10.6903 0.499531 11.25 1.11684 11.25H8.75V15Z" fill="white"/>
</g>
</g>
<defs>
<clipPath id="clip0_4_102">
<rect width="20" height="20" fill="white"/>
</clipPath>
</defs>
</svg>
