<svg width="20" height="20" viewBox="0 0 20 20" fill="none" xmlns="http://www.w3.org/2000/svg">
<path d="M17.2897 7.06623C17.2027 7.0666 17.1168 7.04536 17.0385 7.00414L10.4386 3.34106L3.83873 6.9793C3.5455 7.13017 3.1953 6.99396 3.05656 6.67508C2.91783 6.35621 3.04309 5.97537 3.33631 5.8245L10.4386 2L17.5409 5.8245C17.8562 5.9 18.0556 6.23911 17.9862 6.58195C17.9168 6.92479 17.6049 7.14172 17.2897 7.06623ZM7.58398 13.2748H4.15844V17H7.58398V13.2748ZM12.1514 13.2748H8.72583V17H12.1514V13.2748ZM16.7188 13.2748H13.2932V17H16.7188V13.2748ZM14.4351 8.30795H11.0095V12.0331H14.4351V8.30795ZM9.86768 8.30795H6.44214V12.0331H9.86768V8.30795Z" fill="white"/>
</svg>
