<svg width="20" height="20" viewBox="0 0 20 20" fill="none" xmlns="http://www.w3.org/2000/svg">
<g id="out_svgrepo.com" clip-path="url(#clip0_4_112)">
<g id="Group 7">
<path id="Path 2" fill-rule="evenodd" clip-rule="evenodd" d="M8.75 1.25C8.74995 1.41417 8.78225 1.57673 8.84506 1.72841C8.90786 1.88009 8.99993 2.0179 9.11601 2.13399C9.2321 2.25007 9.36991 2.34214 9.52159 2.40494C9.67327 2.46774 9.83583 2.50005 10 2.5L17.5 2.5L17.5 17.5L10 17.5C9.66848 17.5 9.35054 17.6317 9.11612 17.8661C8.8817 18.1005 8.75 18.4185 8.75 18.75C8.75 19.0815 8.8817 19.3995 9.11612 19.6339C9.35054 19.8683 9.66848 20 10 20L18.75 20C18.9142 20 19.0767 19.9677 19.2284 19.9049C19.3801 19.8421 19.5179 19.7501 19.634 19.634C19.7501 19.5179 19.8421 19.3801 19.9049 19.2284C19.9677 19.0767 20 18.9142 20 18.75L20 1.25C20 1.08583 19.9677 0.923267 19.9049 0.771591C19.8421 0.619913 19.7501 0.482096 19.634 0.366013C19.5179 0.249931 19.3801 0.157858 19.2284 0.0950565C19.0767 0.0322552 18.9142 -4.57764e-05 18.75 0L10 0C9.83583 -4.57764e-05 9.67327 0.0322552 9.52159 0.0950565C9.36991 0.157858 9.2321 0.249931 9.11601 0.366013C8.99993 0.482096 8.90786 0.619913 8.84506 0.771591C8.78225 0.923267 8.74995 1.08583 8.75 1.25Z" fill="white"/>
<path id="Path 3" fill-rule="evenodd" clip-rule="evenodd" d="M12.5 11.25C12.8315 11.25 13.1495 11.1183 13.3839 10.8839C13.6183 10.6495 13.75 10.3315 13.75 10C13.75 9.66848 13.6183 9.35054 13.3839 9.11612C13.1495 8.8817 12.8315 8.75 12.5 8.75L5 8.75L5 5L0 10L5 15L5 11.25L12.5 11.25Z" fill="white"/>
</g>
</g>
<defs>
<clipPath id="clip0_4_112">
<rect width="20" height="20" fill="white" transform="matrix(0 -1 1 0 0 20)"/>
</clipPath>
</defs>
</svg>
