<svg width="139" height="139" viewBox="0 0 139 139" fill="none" xmlns="http://www.w3.org/2000/svg">
<path d="M115.064 68.7555L88.1945 65.635L92.9115 73.3055L59.1704 94.055L67.2677 107.222L101.009 86.4725L105.726 94.143L115.064 68.7555Z" fill="#3F3E3E" fill-opacity="0.6"/>
<path d="M88.7619 124.784H3.86457C1.73017 124.784 0 123.054 0 120.919V77.2076C0 75.0732 1.73017 73.343 3.86457 73.343H39.2745C41.4089 73.343 43.139 75.0732 43.139 77.2076C43.139 79.342 41.4089 81.0721 39.2745 81.0721H7.72887V117.055H88.7619C90.8963 117.055 92.6265 118.785 92.6265 120.92C92.6262 123.054 90.8963 124.784 88.7619 124.784Z" fill="#3F3E3E" fill-opacity="0.6"/>
<path d="M135.135 78.4105C133.001 78.4105 131.271 76.6803 131.271 74.5459V21.9451H105.363V37.7897C105.363 39.9241 103.633 41.6543 101.498 41.6543H74.2509V57.4989C74.2509 59.6333 72.5207 61.3635 70.3863 61.3635H39.2742C37.1398 61.3635 35.4097 59.6333 35.4097 57.4989C35.4097 55.3645 37.1398 53.6343 39.2742 53.6343H66.522V37.7897C66.522 35.6553 68.2522 33.9252 70.3866 33.9252H97.6343V18.0806C97.6343 15.9461 99.3645 14.216 101.499 14.216H135.135C137.27 14.216 139 15.9461 139 18.0806V74.5459C139 76.6803 137.27 78.4105 135.135 78.4105Z" fill="#3F3E3E" fill-opacity="0.6"/>
</svg>
