<svg width="139" height="139" viewBox="0 0 139 139" fill="none" xmlns="http://www.w3.org/2000/svg">
<path d="M81.0833 70.9479C76.7877 70.9479 72.5887 69.6743 69.017 67.2876C65.4453 64.9014 62.6618 61.5092 61.0181 57.5406C59.3739 53.572 58.9441 49.2051 59.7822 44.992C60.6202 40.779 62.6884 36.9091 65.7262 33.8717C68.7633 30.8343 72.6333 28.7658 76.8462 27.9278C81.059 27.0897 85.4259 27.5198 89.395 29.1636C93.3634 30.8075 96.7556 33.5913 99.1418 37.1629C101.529 40.7345 102.802 44.9336 102.802 49.2292C102.802 54.9893 100.514 60.5136 96.4411 64.5869C92.3678 68.6596 86.8437 70.9479 81.0833 70.9479ZM81.0833 36.1979C78.5061 36.1979 75.9867 36.9622 73.8438 38.3941C71.7008 39.826 70.0305 41.8612 69.0442 44.2423C68.0579 46.6235 67.7996 49.2436 68.3023 51.7714C68.8056 54.2992 70.0462 56.6212 71.8688 58.4437C73.6914 60.2663 76.0133 61.5075 78.5408 62.0102C81.0689 62.5129 83.689 62.2546 86.07 61.2683C88.4515 60.282 90.4867 58.6117 91.9184 56.4689C93.3501 54.3259 94.1146 51.8065 94.1146 49.2292C94.1146 45.773 92.7414 42.4585 90.2979 40.0147C87.8538 37.5708 84.5392 36.1979 81.0833 36.1979Z" fill="#3F3E3E" fill-opacity="0.6"/>
<path d="M121.625 111.49C120.478 111.475 119.381 111.012 118.57 110.201C117.759 109.39 117.296 108.293 117.281 107.146C117.281 95.8521 111.142 88.3229 81.0834 88.3229C51.0247 88.3229 44.8855 95.8521 44.8855 107.146C44.8855 108.298 44.4278 109.403 43.6132 110.217C42.7986 111.032 41.6938 111.49 40.5417 111.49C39.3897 111.49 38.2849 111.032 37.4703 110.217C36.6557 109.403 36.198 108.298 36.198 107.146C36.198 79.6354 67.6468 79.6354 81.0834 79.6354C94.5201 79.6354 125.969 79.6354 125.969 107.146C125.954 108.293 125.492 109.39 124.68 110.201C123.869 111.012 122.772 111.475 121.625 111.49Z" fill="#3F3E3E" fill-opacity="0.6"/>
<path d="M48.1867 75.6392H46.3333C41.7252 75.1938 37.4828 72.9362 34.5393 69.3627C31.5959 65.7893 30.1925 61.193 30.6379 56.5846C31.0834 51.9765 33.3412 47.7341 36.9146 44.7906C40.488 41.8472 45.0844 40.4438 49.6925 40.8892C50.2834 40.9146 50.8628 41.0604 51.3954 41.3177C51.9279 41.5749 52.4023 41.9382 52.7895 42.3852C53.1767 42.8323 53.4685 43.3537 53.6471 43.9175C53.8256 44.4813 53.8872 45.0757 53.8279 45.6641C53.7687 46.2525 53.5899 46.8227 53.3026 47.3396C53.0152 47.8565 52.6253 48.3092 52.1568 48.6701C51.6883 49.031 51.151 49.2925 50.5779 49.4384C50.0047 49.5844 49.4078 49.6117 48.8238 49.5188C47.6932 49.4061 46.5515 49.5223 45.4668 49.8607C44.3822 50.199 43.3769 50.7525 42.5108 51.488C41.6313 52.1975 40.9017 53.075 40.3648 54.0694C39.8278 55.0637 39.4942 56.155 39.3833 57.2796C39.2636 58.4182 39.3716 59.5696 39.7012 60.666C40.0308 61.7629 40.5753 62.7828 41.303 63.6666C42.0307 64.551 42.9271 65.2813 43.9399 65.8153C44.9526 66.3493 46.0616 66.6766 47.2021 66.7779C49.0875 66.9395 50.9751 66.493 52.5883 65.5037C53.5714 64.8974 54.7552 64.7057 55.8795 64.9721C57.0036 65.2379 57.9758 65.9399 58.5828 66.9227C59.1897 67.9061 59.3809 69.0899 59.115 70.2141C58.8486 71.3383 58.1467 72.3107 57.1638 72.9171C54.4776 74.6303 51.372 75.572 48.1867 75.6392Z" fill="#3F3E3E" fill-opacity="0.6"/>
<path d="M17.375 107.146C16.2276 107.131 15.1315 106.669 14.3201 105.857C13.5087 105.046 13.0463 103.949 13.0312 102.802C13.0312 87.1646 17.2013 76.7396 37.6458 76.7396C38.7979 76.7396 39.9027 77.1971 40.7173 78.012C41.5319 78.8263 41.9896 79.9314 41.9896 81.0833C41.9896 82.2353 41.5319 83.3403 40.7173 84.1547C39.9027 84.9695 38.7979 85.4271 37.6458 85.4271C24.0354 85.4271 21.7188 89.7708 21.7188 102.802C21.7038 103.949 21.2413 105.046 20.4299 105.857C19.6185 106.669 18.5224 107.131 17.375 107.146Z" fill="#3F3E3E" fill-opacity="0.6"/>
</svg>
